<svg version="1.1" xmlns="http://www.w3.org/2000/svg" viewBox="0 0 893.6000061035156 655.2000122070312" width="893.6000061035156" height="655.2000122070312">
  <!-- svg-source:excalidraw -->
  
  <defs>
    <style class="style-fonts">
      @font-face {
        font-family: "Virgil";
        src: url("https://excalidraw.com/Virgil.woff2");
      }
      @font-face {
        font-family: "Cascadia";
        src: url("https://excalidraw.com/Cascadia.woff2");
      }
      @font-face {
        font-family: "Assistant";
        src: url("https://excalidraw.com/Assistant-Regular.woff2");
      }
    </style>
    
  </defs>
  <rect x="0" y="0" width="893.6000061035156" height="655.2000122070312" fill="#ffffff"></rect><g stroke-linecap="round" transform="translate(10 10) rotate(0 436.8000030517578 317.6000061035156)"><path d="M32 0 C232.93 3, 433.6 2.77, 841.6 0 M32 0 C250.07 1.92, 468.24 2.19, 841.6 0 M841.6 0 C862.8 1.65, 874.83 9.51, 873.6 32 M841.6 0 C864.82 -0.59, 871.94 11.53, 873.6 32 M873.6 32 C873.18 249.93, 873.47 467.59, 873.6 603.2 M873.6 32 C874.96 211.27, 874.54 390.21, 873.6 603.2 M873.6 603.2 C872.29 622.89, 861.93 636.13, 841.6 635.2 M873.6 603.2 C875.63 623.67, 861.62 636.88, 841.6 635.2 M841.6 635.2 C536.18 632.73, 231.18 632.71, 32 635.2 M841.6 635.2 C626.56 637.73, 411.32 638.19, 32 635.2 M32 635.2 C12.37 636.44, -1.37 624.47, 0 603.2 M32 635.2 C9.01 635.96, -0.58 623.15, 0 603.2 M0 603.2 C0.26 485.14, 0.33 367.83, 0 32 M0 603.2 C0.76 481.44, 0.49 358.92, 0 32 M0 32 C0.32 9.89, 8.9 0.43, 32 0 M0 32 C-2.2 9.18, 10.4 1.03, 32 0" stroke="#1e1e1e" stroke-width="2" fill="none"></path></g><g stroke-linecap="round" transform="translate(357.82214694552977 39.11116875542535) rotate(0 105.33331976996527 23.555560641818573)"><path d="M11.78 0 C72.71 2.35, 129.66 -0.22, 198.89 0 M11.78 0 C68.44 -1.6, 125.22 -0.48, 198.89 0 M198.89 0 C207.44 0.02, 212.19 3.72, 210.67 11.78 M198.89 0 C206.06 -0.01, 208.92 3.75, 210.67 11.78 M210.67 11.78 C211.64 19.62, 211.55 29.69, 210.67 35.33 M210.67 11.78 C210.8 17.66, 209.61 22.76, 210.67 35.33 M210.67 35.33 C208.69 43.39, 206.1 48.9, 198.89 47.11 M210.67 35.33 C210.73 44.85, 204.61 49.3, 198.89 47.11 M198.89 47.11 C129.23 45.83, 58.58 46.79, 11.78 47.11 M198.89 47.11 C124.88 45.64, 51.79 46.16, 11.78 47.11 M11.78 47.11 C5.18 47.64, 1.06 44.3, 0 35.33 M11.78 47.11 C1.83 48.17, 0.3 41.34, 0 35.33 M0 35.33 C1.21 29.46, -1.01 18.96, 0 11.78 M0 35.33 C0.82 28.62, 1.02 21.4, 0 11.78 M0 11.78 C-1.45 3.32, 4.94 0.32, 11.78 0 M0 11.78 C-0.46 3.77, 3.19 0.51, 11.78 0" stroke="#1e1e1e" stroke-width="2" fill="none"></path></g><g transform="translate(386.3955332438153 50.1667293972439) rotate(0 76.75993347167969 12.5)"><text x="76.75993347167969" y="0" font-family="Virgil, Segoe UI Emoji" font-size="20px" fill="#1e1e1e" text-anchor="middle" style="white-space: pre;" direction="ltr" dominant-baseline="text-before-edge">All about trees</text></g><g stroke-linecap="round" transform="translate(204.93328518337694 22.22223239474829) rotate(0 53.77777099609375 53.33333757188586)"><path d="M26.67 0 C45.18 0.08, 66.66 1.09, 80.89 0 M26.67 0 C42.28 0.81, 58.84 1.02, 80.89 0 M80.89 0 C99.13 1.43, 106.33 7.2, 107.56 26.67 M80.89 0 C99.1 -1.13, 107.87 11.18, 107.56 26.67 M107.56 26.67 C107.33 37.58, 108.26 47.46, 107.56 80 M107.56 26.67 C107.37 41.66, 108.04 55.52, 107.56 80 M107.56 80 C108.87 97.58, 99.43 105.18, 80.89 106.67 M107.56 80 C109.16 95.62, 100.37 104.89, 80.89 106.67 M80.89 106.67 C63.27 106.1, 43.71 104.84, 26.67 106.67 M80.89 106.67 C65.73 107.99, 49.94 107.03, 26.67 106.67 M26.67 106.67 C8.65 106.87, -1.39 99.41, 0 80 M26.67 106.67 C10.39 105.71, 1.81 99.81, 0 80 M0 80 C-1.25 65.12, 0.03 52.1, 0 26.67 M0 80 C-0.79 63.43, 0.38 46.93, 0 26.67 M0 26.67 C-1.11 9.33, 10.21 -0.81, 26.67 0 M0 26.67 C2.02 9.61, 10.78 -1.61, 26.67 0" stroke="#1e1e1e" stroke-width="2" fill="none"></path></g><g transform="translate(236.6310772365996 63.05556996663415) rotate(0 22.079978942871094 12.5)"><text x="22.079978942871094" y="0" font-family="Virgil, Segoe UI Emoji" font-size="20px" fill="#1e1e1e" text-anchor="middle" style="white-space: pre;" direction="ltr" dominant-baseline="text-before-edge">Logo</text></g><g stroke-linecap="round" transform="translate(595.1555887858074 22.222266303168396) rotate(0 51.99998643663196 50.666660732693146)"><path d="M25.33 0 C36.22 1.09, 47.1 1.68, 78.67 0 M25.33 0 C43.02 1.19, 60.65 0.9, 78.67 0 M78.67 0 C94.62 -1.92, 103.78 8.73, 104 25.33 M78.67 0 C96.64 1.51, 105.12 8.19, 104 25.33 M104 25.33 C105.73 44.69, 105.49 66.64, 104 76 M104 25.33 C104.89 38.25, 104.94 50.86, 104 76 M104 76 C104.93 91.08, 96.6 102.18, 78.67 101.33 M104 76 C104.37 91.1, 94.03 102.23, 78.67 101.33 M78.67 101.33 C63.1 100.7, 47.45 99.86, 25.33 101.33 M78.67 101.33 C59.44 100.64, 40.88 100.66, 25.33 101.33 M25.33 101.33 C9.33 99.97, -0.72 93.53, 0 76 M25.33 101.33 C9.64 100.31, -0.21 91.43, 0 76 M0 76 C-1.7 63.51, -0.4 56.52, 0 25.33 M0 76 C-1.19 61.78, -0.46 45.84, 0 25.33 M0 25.33 C1.88 6.67, 8.03 -0.05, 25.33 0 M0 25.33 C1.29 6.49, 6.25 0.68, 25.33 0" stroke="#1e1e1e" stroke-width="2" fill="none"></path></g><g transform="translate(625.0755962795682 60.388927035861514) rotate(0 22.079978942871094 12.5)"><text x="22.079978942871094" y="0" font-family="Virgil, Segoe UI Emoji" font-size="20px" fill="#1e1e1e" text-anchor="middle" style="white-space: pre;" direction="ltr" dominant-baseline="text-before-edge">Logo</text></g><g stroke-linecap="round" transform="translate(169.3777974446616 573.3333604600695) rotate(0 287.55557590060766 34.222208658854186)"><path d="M17.11 0 C222.03 -0.75, 425.94 -1.35, 558 0 M17.11 0 C175.07 -0.93, 333.47 -0.5, 558 0 M558 0 C571 1.1, 575.63 3.82, 575.11 17.11 M558 0 C568.34 1.78, 574.18 7.31, 575.11 17.11 M575.11 17.11 C574.58 25.64, 574.47 34.29, 575.11 51.33 M575.11 17.11 C574.77 24.93, 575.62 33.21, 575.11 51.33 M575.11 51.33 C576.89 64.36, 569.9 67.89, 558 68.44 M575.11 51.33 C577.08 61.93, 568.95 67.94, 558 68.44 M558 68.44 C375.47 66.26, 192.64 66.45, 17.11 68.44 M558 68.44 C387.24 66.85, 216.31 66.95, 17.11 68.44 M17.11 68.44 C4.77 67.65, 1.5 62.32, 0 51.33 M17.11 68.44 C6.92 69.25, 0.45 64.03, 0 51.33 M0 51.33 C-0.7 40.8, 0.65 33.83, 0 17.11 M0 51.33 C-0.1 41.15, 0.95 29.88, 0 17.11 M0 17.11 C-0.23 5.65, 6.46 1.31, 17.11 0 M0 17.11 C-0.01 4.02, 6.67 -2.22, 17.11 0" stroke="#1e1e1e" stroke-width="2" fill="none"></path></g><g transform="translate(424.69340599907787 595.0555691189236) rotate(0 32.239967346191406 12.5)"><text x="32.239967346191406" y="0" font-family="Virgil, Segoe UI Emoji" font-size="20px" fill="#1e1e1e" text-anchor="middle" style="white-space: pre;" direction="ltr" dominant-baseline="text-before-edge">Footer</text></g><g stroke-linecap="round" transform="translate(64.48888142903655 212.44446818033867) rotate(0 164.88888210720486 71.11111111111111)"><path d="M32 0 C121.67 -1.16, 212.74 0.33, 297.78 0 M32 0 C111.98 -1.61, 191.26 -1.26, 297.78 0 M297.78 0 C317.79 1.89, 328.9 12.59, 329.78 32 M297.78 0 C319.6 -0.75, 329.11 10.89, 329.78 32 M329.78 32 C330.05 58.9, 328.9 83.21, 329.78 110.22 M329.78 32 C329.52 58.75, 330.13 85.85, 329.78 110.22 M329.78 110.22 C330.7 131.01, 319.22 142.23, 297.78 142.22 M329.78 110.22 C331.33 130.62, 317.27 141.67, 297.78 142.22 M297.78 142.22 C220.48 141.8, 140.07 140.82, 32 142.22 M297.78 142.22 C230.85 140.35, 163.47 140.84, 32 142.22 M32 142.22 C11.03 143.76, 1.21 129.86, 0 110.22 M32 142.22 C12.93 143.9, 1.16 129.52, 0 110.22 M0 110.22 C0.77 90.12, 0.36 73.08, 0 32 M0 110.22 C0.32 83.15, -0.31 55.87, 0 32 M0 32 C-1.19 10.01, 12.14 1.22, 32 0 M0 32 C-0.27 8.91, 11.2 -0.81, 32 0" stroke="#1e1e1e" stroke-width="2" fill="none"></path></g><g stroke-linecap="round" transform="translate(62.93336656358514 389.5556064181858) rotate(0 165.77779134114573 79.55555386013455)"><path d="M32 0 C129.49 0.91, 226.02 -0.4, 299.56 0 M32 0 C117.37 1.15, 203.21 1.05, 299.56 0 M299.56 0 C320.01 1.39, 331.82 12.32, 331.56 32 M299.56 0 C319.07 1, 330.46 12.2, 331.56 32 M331.56 32 C330.61 58.23, 333.62 82.72, 331.56 127.11 M331.56 32 C332.48 56.49, 331.74 80.55, 331.56 127.11 M331.56 127.11 C333.36 148.24, 319.45 157.88, 299.56 159.11 M331.56 127.11 C329.34 147.33, 322.55 159.8, 299.56 159.11 M299.56 159.11 C205.2 161.26, 113.61 161.25, 32 159.11 M299.56 159.11 C216.82 158.68, 135.11 159.01, 32 159.11 M32 159.11 C9.36 160, -0.83 147.42, 0 127.11 M32 159.11 C9.56 160.19, -1.4 149.33, 0 127.11 M0 127.11 C1.55 93.63, -1.01 58.08, 0 32 M0 127.11 C0.48 96.14, -0.06 62.94, 0 32 M0 32 C0.32 10.46, 9.27 1.83, 32 0 M0 32 C1.17 12.18, 9.79 -1.76, 32 0" stroke="#1e1e1e" stroke-width="2" fill="none"></path></g><g stroke-linecap="round" transform="translate(324.93335300021715 117.33338419596356) rotate(0 130.6666734483507 23.111106024848084)"><path d="M11.56 0 C59.27 1.3, 110.6 0.81, 249.78 0 M11.56 0 C98.07 -1.45, 183.46 -1.8, 249.78 0 M249.78 0 C259.11 -1.16, 261.02 3.18, 261.33 11.56 M249.78 0 C255.59 0.44, 259.9 4.92, 261.33 11.56 M261.33 11.56 C261.62 18.4, 259.5 25.62, 261.33 34.67 M261.33 11.56 C261.49 19.32, 261.33 28.27, 261.33 34.67 M261.33 34.67 C260.16 41.74, 257.41 44.86, 249.78 46.22 M261.33 34.67 C261.23 42.4, 256.78 45.81, 249.78 46.22 M249.78 46.22 C163.14 45.76, 78.5 46.44, 11.56 46.22 M249.78 46.22 C177.34 44.53, 104.03 44.75, 11.56 46.22 M11.56 46.22 C3.93 45.15, 0.28 44.05, 0 34.67 M11.56 46.22 C5.17 45.68, -1.15 44.04, 0 34.67 M0 34.67 C2 25.71, 0.26 18.96, 0 11.56 M0 34.67 C-1.18 26.76, 0.63 17.16, 0 11.56 M0 11.56 C-0.6 2.1, 2.79 0.69, 11.56 0 M0 11.56 C-0.99 3.62, 4.23 1.41, 11.56 0" stroke="#1e1e1e" stroke-width="2" fill="none"></path></g><g transform="translate(409.3777974446616 127.99997287326391) rotate(0 49.83997344970703 12.5)"><text x="0" y="0" font-family="Virgil, Segoe UI Emoji" font-size="20px" fill="#1e1e1e" text-anchor="start" style="white-space: pre;" direction="ltr" dominant-baseline="text-before-edge">Nav_Bar </text></g><g stroke-linecap="round" transform="translate(446.711171468099 285.3333808051216) rotate(0 187.99997965494794 77.77777777777777)"><path d="M32 0 C108.32 -0.73, 185.64 0.07, 344 0 M32 0 C95.34 0.39, 159.18 -0.04, 344 0 M344 0 C366.66 0.6, 376.71 9.58, 376 32 M344 0 C364.34 -0.37, 373.71 9.17, 376 32 M376 32 C376.19 57.13, 376.53 83.8, 376 123.56 M376 32 C374.96 53.8, 376.6 75, 376 123.56 M376 123.56 C375.56 143.82, 367.14 157.36, 344 155.56 M376 123.56 C374.24 144.88, 364.94 156.93, 344 155.56 M344 155.56 C228.92 156.93, 113.65 154.62, 32 155.56 M344 155.56 C232 156.3, 121.01 155.58, 32 155.56 M32 155.56 C12.57 154.16, -0.23 143.07, 0 123.56 M32 155.56 C11.43 155.07, -0.37 142.74, 0 123.56 M0 123.56 C1.69 104.61, 0.56 81.4, 0 32 M0 123.56 C0.06 98.1, 0.5 70.99, 0 32 M0 32 C-1.73 12.5, 10.6 -1.51, 32 0 M0 32 C1.41 8.75, 8.89 0.14, 32 0" stroke="#1e1e1e" stroke-width="2" fill="none"></path></g><g transform="translate(577.47119140625 350.61115858289935) rotate(0 57.239959716796875 12.5)"><text x="57.239959716796875" y="0" font-family="Virgil, Segoe UI Emoji" font-size="20px" fill="#1e1e1e" text-anchor="middle" style="white-space: pre;" direction="ltr" dominant-baseline="text-before-edge">Extra Info.</text></g><g transform="translate(168.48892211914074 266.66669379340277) rotate(0 58.18994140625 12.5)"><text x="0" y="0" font-family="Virgil, Segoe UI Emoji" font-size="20px" fill="#1e1e1e" text-anchor="start" style="white-space: pre;" direction="ltr" dominant-baseline="text-before-edge">Description </text></g><g transform="translate(172.9333665635852 460.4445326063368) rotate(0 48.57996368408203 12.5)"><text x="0" y="0" font-family="Virgil, Segoe UI Emoji" font-size="20px" fill="#1e1e1e" text-anchor="start" style="white-space: pre;" direction="ltr" dominant-baseline="text-before-edge">Main text</text></g></svg>